<svg xmlns="http://www.w3.org/2000/svg" width="420" height="745" viewBox="0 0 420 745">
  <defs>
    <style>
      .title { font: 700 18px system-ui, -apple-system, sans-serif; fill: #24292f; }
      .stat-label { font: 400 14px system-ui, -apple-system, sans-serif; fill: #57606a; }
      .stat-value { font: 700 14px system-ui, -apple-system, sans-serif; fill: #24292f; }
      .cat-name { font: 600 13px system-ui, -apple-system, sans-serif; fill: #24292f; }
      .cat-pct { font: 400 13px system-ui, -apple-system, sans-serif; fill: #57606a; }
    </style>
  </defs>

  <rect width="100%" height="100%" fill="#ffffff" rx="8" stroke="#d0d7de" stroke-width="1"/>

  <!-- Title -->
  <text x="30" y="40" class="title">Tech Stack Stats</text>

  

  <!-- Summary stats -->
  <g transform="translate(30, 72)">
    <text x="0" y="0" class="stat-label">Total Technologies</text>
    <text x="360" y="0" text-anchor="end" class="stat-value">30</text>
  </g>
  <g transform="translate(30, 98)">
    <text x="0" y="0" class="stat-label">Repos Analyzed</text>
    <text x="360" y="0" text-anchor="end" class="stat-value">18</text>
  </g>

  <!-- Separator -->
  <line x1="30" y1="118" x2="390" y2="118" stroke="#d0d7de" stroke-width="1" opacity="0.5"/>

  <!-- Category breakdown -->
  
  
  
  <g transform="translate(30, 148)">
    <text x="0" y="0" class="cat-name">Language</text>
    <text x="360" y="0" text-anchor="end" class="cat-pct">11 · 37%</text>
    <rect x="0" y="10" width="360" height="10" rx="5" fill="#d0d7de" opacity="0.3"/>
    <rect x="0" y="10" width="360.0" height="10" rx="5" fill="#f1e05a"/>
  </g>
  
  
  <g transform="translate(30, 192)">
    <text x="0" y="0" class="cat-name">Framework</text>
    <text x="360" y="0" text-anchor="end" class="cat-pct">4 · 13%</text>
    <rect x="0" y="10" width="360" height="10" rx="5" fill="#d0d7de" opacity="0.3"/>
    <rect x="0" y="10" width="130.90909090909093" height="10" rx="5" fill="#61dafb"/>
  </g>
  
  
  <g transform="translate(30, 236)">
    <text x="0" y="0" class="cat-name">HTTP</text>
    <text x="360" y="0" text-anchor="end" class="cat-pct">3 · 10%</text>
    <rect x="0" y="10" width="360" height="10" rx="5" fill="#d0d7de" opacity="0.3"/>
    <rect x="0" y="10" width="98.1818181818182" height="10" rx="5" fill="#79c0ff"/>
  </g>
  
  
  <g transform="translate(30, 280)">
    <text x="0" y="0" class="cat-name">Build</text>
    <text x="360" y="0" text-anchor="end" class="cat-pct">2 · 7%</text>
    <rect x="0" y="10" width="360" height="10" rx="5" fill="#d0d7de" opacity="0.3"/>
    <rect x="0" y="10" width="65.45454545454547" height="10" rx="5" fill="#ff7b72"/>
  </g>
  
  
  <g transform="translate(30, 324)">
    <text x="0" y="0" class="cat-name">State Mgmt</text>
    <text x="360" y="0" text-anchor="end" class="cat-pct">2 · 7%</text>
    <rect x="0" y="10" width="360" height="10" rx="5" fill="#d0d7de" opacity="0.3"/>
    <rect x="0" y="10" width="65.45454545454547" height="10" rx="5" fill="#8b949e"/>
  </g>
  
  
  <g transform="translate(30, 368)">
    <text x="0" y="0" class="cat-name">Styling</text>
    <text x="360" y="0" text-anchor="end" class="cat-pct">1 · 3%</text>
    <rect x="0" y="10" width="360" height="10" rx="5" fill="#d0d7de" opacity="0.3"/>
    <rect x="0" y="10" width="32.727272727272734" height="10" rx="5" fill="#e377c2"/>
  </g>
  
  
  <g transform="translate(30, 412)">
    <text x="0" y="0" class="cat-name">Graphics</text>
    <text x="360" y="0" text-anchor="end" class="cat-pct">1 · 3%</text>
    <rect x="0" y="10" width="360" height="10" rx="5" fill="#d0d7de" opacity="0.3"/>
    <rect x="0" y="10" width="32.727272727272734" height="10" rx="5" fill="#d2a8ff"/>
  </g>
  
  
  <g transform="translate(30, 456)">
    <text x="0" y="0" class="cat-name">Testing</text>
    <text x="360" y="0" text-anchor="end" class="cat-pct">1 · 3%</text>
    <rect x="0" y="10" width="360" height="10" rx="5" fill="#d0d7de" opacity="0.3"/>
    <rect x="0" y="10" width="32.727272727272734" height="10" rx="5" fill="#d29922"/>
  </g>
  
  
  <g transform="translate(30, 500)">
    <text x="0" y="0" class="cat-name">CI/CD</text>
    <text x="360" y="0" text-anchor="end" class="cat-pct">1 · 3%</text>
    <rect x="0" y="10" width="360" height="10" rx="5" fill="#d0d7de" opacity="0.3"/>
    <rect x="0" y="10" width="32.727272727272734" height="10" rx="5" fill="#539bf5"/>
  </g>
  
  
  <g transform="translate(30, 544)">
    <text x="0" y="0" class="cat-name">Server</text>
    <text x="360" y="0" text-anchor="end" class="cat-pct">1 · 3%</text>
    <rect x="0" y="10" width="360" height="10" rx="5" fill="#d0d7de" opacity="0.3"/>
    <rect x="0" y="10" width="32.727272727272734" height="10" rx="5" fill="#f85149"/>
  </g>
  
  
  <g transform="translate(30, 588)">
    <text x="0" y="0" class="cat-name">Hosting</text>
    <text x="360" y="0" text-anchor="end" class="cat-pct">1 · 3%</text>
    <rect x="0" y="10" width="360" height="10" rx="5" fill="#d0d7de" opacity="0.3"/>
    <rect x="0" y="10" width="32.727272727272734" height="10" rx="5" fill="#f778ba"/>
  </g>
  
  
  <g transform="translate(30, 632)">
    <text x="0" y="0" class="cat-name">DevOps</text>
    <text x="360" y="0" text-anchor="end" class="cat-pct">1 · 3%</text>
    <rect x="0" y="10" width="360" height="10" rx="5" fill="#d0d7de" opacity="0.3"/>
    <rect x="0" y="10" width="32.727272727272734" height="10" rx="5" fill="#f0883e"/>
  </g>
  
  
  <g transform="translate(30, 676)">
    <text x="0" y="0" class="cat-name">Storage</text>
    <text x="360" y="0" text-anchor="end" class="cat-pct">1 · 3%</text>
    <rect x="0" y="10" width="360" height="10" rx="5" fill="#d0d7de" opacity="0.3"/>
    <rect x="0" y="10" width="32.727272727272734" height="10" rx="5" fill="#3fb950"/>
  </g>
  
</svg>