<svg xmlns="http://www.w3.org/2000/svg" width="420" height="678" viewBox="0 0 420 678">
  <defs>
    <style>
      .title { font: 600 16px system-ui, -apple-system, sans-serif; fill: #24292f; }
      .stat-label { font: 400 13px system-ui, -apple-system, sans-serif; fill: #57606a; }
      .stat-value { font: 700 13px system-ui, -apple-system, sans-serif; fill: #24292f; }
      .cat-name { font: 400 12px system-ui, -apple-system, sans-serif; fill: #24292f; }
      .cat-pct { font: 400 12px system-ui, -apple-system, sans-serif; fill: #57606a; }
    </style>
  </defs>

  <rect width="100%" height="100%" fill="#ffffff" rx="6" stroke="#d0d7de" stroke-width="1"/>

  <!-- Title -->
  <text x="25" y="38" class="title">Tech Stack Stats</text>

  

  <!-- Summary stats -->
  <g transform="translate(25, 68)">
    <text x="0" y="0" class="stat-label">Total Technologies</text>
    <text x="370" y="0" text-anchor="end" class="stat-value">30</text>
  </g>
  <g transform="translate(25, 92)">
    <text x="0" y="0" class="stat-label">Repos Analyzed</text>
    <text x="370" y="0" text-anchor="end" class="stat-value">18</text>
  </g>

  <!-- Separator -->
  <line x1="25" y1="112" x2="395" y2="112" stroke="#d0d7de" stroke-width="1" opacity="0.5"/>

  <!-- Category breakdown -->
  
  
  
  <g transform="translate(25, 138)">
    <text x="0" y="0" class="cat-name">Language</text>
    <text x="370" y="0" text-anchor="end" class="cat-pct">11 · 37%</text>
    <rect x="0" y="10" width="370" height="10" rx="5" fill="#d0d7de" opacity="0.4"/>
    <rect x="0" y="10" width="370.0" height="10" rx="5" fill="#f1e05a"/>
  </g>
  
  
  <g transform="translate(25, 178)">
    <text x="0" y="0" class="cat-name">Framework</text>
    <text x="370" y="0" text-anchor="end" class="cat-pct">4 · 13%</text>
    <rect x="0" y="10" width="370" height="10" rx="5" fill="#d0d7de" opacity="0.4"/>
    <rect x="0" y="10" width="134.54545454545456" height="10" rx="5" fill="#61dafb"/>
  </g>
  
  
  <g transform="translate(25, 218)">
    <text x="0" y="0" class="cat-name">HTTP</text>
    <text x="370" y="0" text-anchor="end" class="cat-pct">3 · 10%</text>
    <rect x="0" y="10" width="370" height="10" rx="5" fill="#d0d7de" opacity="0.4"/>
    <rect x="0" y="10" width="100.90909090909092" height="10" rx="5" fill="#79c0ff"/>
  </g>
  
  
  <g transform="translate(25, 258)">
    <text x="0" y="0" class="cat-name">Build</text>
    <text x="370" y="0" text-anchor="end" class="cat-pct">2 · 7%</text>
    <rect x="0" y="10" width="370" height="10" rx="5" fill="#d0d7de" opacity="0.4"/>
    <rect x="0" y="10" width="67.27272727272728" height="10" rx="5" fill="#ff7b72"/>
  </g>
  
  
  <g transform="translate(25, 298)">
    <text x="0" y="0" class="cat-name">State Mgmt</text>
    <text x="370" y="0" text-anchor="end" class="cat-pct">2 · 7%</text>
    <rect x="0" y="10" width="370" height="10" rx="5" fill="#d0d7de" opacity="0.4"/>
    <rect x="0" y="10" width="67.27272727272728" height="10" rx="5" fill="#8b949e"/>
  </g>
  
  
  <g transform="translate(25, 338)">
    <text x="0" y="0" class="cat-name">Styling</text>
    <text x="370" y="0" text-anchor="end" class="cat-pct">1 · 3%</text>
    <rect x="0" y="10" width="370" height="10" rx="5" fill="#d0d7de" opacity="0.4"/>
    <rect x="0" y="10" width="33.63636363636364" height="10" rx="5" fill="#e377c2"/>
  </g>
  
  
  <g transform="translate(25, 378)">
    <text x="0" y="0" class="cat-name">Graphics</text>
    <text x="370" y="0" text-anchor="end" class="cat-pct">1 · 3%</text>
    <rect x="0" y="10" width="370" height="10" rx="5" fill="#d0d7de" opacity="0.4"/>
    <rect x="0" y="10" width="33.63636363636364" height="10" rx="5" fill="#d2a8ff"/>
  </g>
  
  
  <g transform="translate(25, 418)">
    <text x="0" y="0" class="cat-name">CI/CD</text>
    <text x="370" y="0" text-anchor="end" class="cat-pct">1 · 3%</text>
    <rect x="0" y="10" width="370" height="10" rx="5" fill="#d0d7de" opacity="0.4"/>
    <rect x="0" y="10" width="33.63636363636364" height="10" rx="5" fill="#539bf5"/>
  </g>
  
  
  <g transform="translate(25, 458)">
    <text x="0" y="0" class="cat-name">Server</text>
    <text x="370" y="0" text-anchor="end" class="cat-pct">1 · 3%</text>
    <rect x="0" y="10" width="370" height="10" rx="5" fill="#d0d7de" opacity="0.4"/>
    <rect x="0" y="10" width="33.63636363636364" height="10" rx="5" fill="#f85149"/>
  </g>
  
  
  <g transform="translate(25, 498)">
    <text x="0" y="0" class="cat-name">Hosting</text>
    <text x="370" y="0" text-anchor="end" class="cat-pct">1 · 3%</text>
    <rect x="0" y="10" width="370" height="10" rx="5" fill="#d0d7de" opacity="0.4"/>
    <rect x="0" y="10" width="33.63636363636364" height="10" rx="5" fill="#f778ba"/>
  </g>
  
  
  <g transform="translate(25, 538)">
    <text x="0" y="0" class="cat-name">Testing</text>
    <text x="370" y="0" text-anchor="end" class="cat-pct">1 · 3%</text>
    <rect x="0" y="10" width="370" height="10" rx="5" fill="#d0d7de" opacity="0.4"/>
    <rect x="0" y="10" width="33.63636363636364" height="10" rx="5" fill="#d29922"/>
  </g>
  
  
  <g transform="translate(25, 578)">
    <text x="0" y="0" class="cat-name">DevOps</text>
    <text x="370" y="0" text-anchor="end" class="cat-pct">1 · 3%</text>
    <rect x="0" y="10" width="370" height="10" rx="5" fill="#d0d7de" opacity="0.4"/>
    <rect x="0" y="10" width="33.63636363636364" height="10" rx="5" fill="#f0883e"/>
  </g>
  
  
  <g transform="translate(25, 618)">
    <text x="0" y="0" class="cat-name">Storage</text>
    <text x="370" y="0" text-anchor="end" class="cat-pct">1 · 3%</text>
    <rect x="0" y="10" width="370" height="10" rx="5" fill="#d0d7de" opacity="0.4"/>
    <rect x="0" y="10" width="33.63636363636364" height="10" rx="5" fill="#3fb950"/>
  </g>
  
</svg>