<svg xmlns="http://www.w3.org/2000/svg" width="420" height="604" viewBox="0 0 420 604">
  <defs>
    <style>
      .title { font: 600 14px system-ui, -apple-system, sans-serif; fill: #24292f; }
      .stat-label { font: 400 12px system-ui, -apple-system, sans-serif; fill: #57606a; }
      .stat-value { font: 700 12px system-ui, -apple-system, sans-serif; fill: #24292f; }
      .cat-name { font: 400 11px system-ui, -apple-system, sans-serif; fill: #24292f; }
      .cat-pct { font: 400 11px system-ui, -apple-system, sans-serif; fill: #57606a; }
    </style>
  </defs>

  <rect width="100%" height="100%" fill="#ffffff" rx="6" stroke="#d0d7de" stroke-width="1"/>

  <!-- Title -->
  <text x="25" y="35" class="title">Tech Stack Stats</text>

  

  <!-- Summary stats -->
  <g transform="translate(25, 60)">
    <text x="0" y="0" class="stat-label">Total Technologies</text>
    <text x="370" y="0" text-anchor="end" class="stat-value">30</text>
  </g>
  <g transform="translate(25, 82)">
    <text x="0" y="0" class="stat-label">Repos Analyzed</text>
    <text x="370" y="0" text-anchor="end" class="stat-value">18</text>
  </g>

  <!-- Separator -->
  <line x1="25" y1="100" x2="395" y2="100" stroke="#d0d7de" stroke-width="1" opacity="0.5"/>

  <!-- Category breakdown -->
  
  
  
  <g transform="translate(25, 120)">
    <text x="0" y="0" class="cat-name">Language</text>
    <text x="370" y="0" text-anchor="end" class="cat-pct">11 · 37%</text>
    <rect x="0" y="8" width="370" height="8" rx="4" fill="#d0d7de" opacity="0.4"/>
    <rect x="0" y="8" width="370.0" height="8" rx="4" fill="#f1e05a"/>
  </g>
  
  
  <g transform="translate(25, 156)">
    <text x="0" y="0" class="cat-name">Framework</text>
    <text x="370" y="0" text-anchor="end" class="cat-pct">4 · 13%</text>
    <rect x="0" y="8" width="370" height="8" rx="4" fill="#d0d7de" opacity="0.4"/>
    <rect x="0" y="8" width="134.54545454545456" height="8" rx="4" fill="#61dafb"/>
  </g>
  
  
  <g transform="translate(25, 192)">
    <text x="0" y="0" class="cat-name">HTTP</text>
    <text x="370" y="0" text-anchor="end" class="cat-pct">3 · 10%</text>
    <rect x="0" y="8" width="370" height="8" rx="4" fill="#d0d7de" opacity="0.4"/>
    <rect x="0" y="8" width="100.90909090909092" height="8" rx="4" fill="#79c0ff"/>
  </g>
  
  
  <g transform="translate(25, 228)">
    <text x="0" y="0" class="cat-name">Build</text>
    <text x="370" y="0" text-anchor="end" class="cat-pct">2 · 7%</text>
    <rect x="0" y="8" width="370" height="8" rx="4" fill="#d0d7de" opacity="0.4"/>
    <rect x="0" y="8" width="67.27272727272728" height="8" rx="4" fill="#ff7b72"/>
  </g>
  
  
  <g transform="translate(25, 264)">
    <text x="0" y="0" class="cat-name">State Mgmt</text>
    <text x="370" y="0" text-anchor="end" class="cat-pct">2 · 7%</text>
    <rect x="0" y="8" width="370" height="8" rx="4" fill="#d0d7de" opacity="0.4"/>
    <rect x="0" y="8" width="67.27272727272728" height="8" rx="4" fill="#8b949e"/>
  </g>
  
  
  <g transform="translate(25, 300)">
    <text x="0" y="0" class="cat-name">Styling</text>
    <text x="370" y="0" text-anchor="end" class="cat-pct">1 · 3%</text>
    <rect x="0" y="8" width="370" height="8" rx="4" fill="#d0d7de" opacity="0.4"/>
    <rect x="0" y="8" width="33.63636363636364" height="8" rx="4" fill="#e377c2"/>
  </g>
  
  
  <g transform="translate(25, 336)">
    <text x="0" y="0" class="cat-name">Graphics</text>
    <text x="370" y="0" text-anchor="end" class="cat-pct">1 · 3%</text>
    <rect x="0" y="8" width="370" height="8" rx="4" fill="#d0d7de" opacity="0.4"/>
    <rect x="0" y="8" width="33.63636363636364" height="8" rx="4" fill="#d2a8ff"/>
  </g>
  
  
  <g transform="translate(25, 372)">
    <text x="0" y="0" class="cat-name">CI/CD</text>
    <text x="370" y="0" text-anchor="end" class="cat-pct">1 · 3%</text>
    <rect x="0" y="8" width="370" height="8" rx="4" fill="#d0d7de" opacity="0.4"/>
    <rect x="0" y="8" width="33.63636363636364" height="8" rx="4" fill="#539bf5"/>
  </g>
  
  
  <g transform="translate(25, 408)">
    <text x="0" y="0" class="cat-name">Server</text>
    <text x="370" y="0" text-anchor="end" class="cat-pct">1 · 3%</text>
    <rect x="0" y="8" width="370" height="8" rx="4" fill="#d0d7de" opacity="0.4"/>
    <rect x="0" y="8" width="33.63636363636364" height="8" rx="4" fill="#f85149"/>
  </g>
  
  
  <g transform="translate(25, 444)">
    <text x="0" y="0" class="cat-name">Hosting</text>
    <text x="370" y="0" text-anchor="end" class="cat-pct">1 · 3%</text>
    <rect x="0" y="8" width="370" height="8" rx="4" fill="#d0d7de" opacity="0.4"/>
    <rect x="0" y="8" width="33.63636363636364" height="8" rx="4" fill="#f778ba"/>
  </g>
  
  
  <g transform="translate(25, 480)">
    <text x="0" y="0" class="cat-name">Testing</text>
    <text x="370" y="0" text-anchor="end" class="cat-pct">1 · 3%</text>
    <rect x="0" y="8" width="370" height="8" rx="4" fill="#d0d7de" opacity="0.4"/>
    <rect x="0" y="8" width="33.63636363636364" height="8" rx="4" fill="#d29922"/>
  </g>
  
  
  <g transform="translate(25, 516)">
    <text x="0" y="0" class="cat-name">DevOps</text>
    <text x="370" y="0" text-anchor="end" class="cat-pct">1 · 3%</text>
    <rect x="0" y="8" width="370" height="8" rx="4" fill="#d0d7de" opacity="0.4"/>
    <rect x="0" y="8" width="33.63636363636364" height="8" rx="4" fill="#f0883e"/>
  </g>
  
  
  <g transform="translate(25, 552)">
    <text x="0" y="0" class="cat-name">Storage</text>
    <text x="370" y="0" text-anchor="end" class="cat-pct">1 · 3%</text>
    <rect x="0" y="8" width="370" height="8" rx="4" fill="#d0d7de" opacity="0.4"/>
    <rect x="0" y="8" width="33.63636363636364" height="8" rx="4" fill="#3fb950"/>
  </g>
  
</svg>